<svg width="223" height="44" viewBox="0 0 223 44" fill="none" xmlns="http://www.w3.org/2000/svg">
<g clipPath="url(#clip0_139_1342)">
<path d="M0.0269803 26.2455C0.0894588 25.2146 -0.0576059 24.0912 0.0269803 23.0728C0.354752 19.1149 2.35406 15.0386 5.02141 12.1588L17.1326 0H17.2287C20.195 3.05222 20.4055 7.75581 17.6151 11.0104L0.459523 28.1656C0.235562 28.1704 0.230756 26.4545 0.0269803 26.2445V26.2455Z" fill="#E4242C"/>
<path d="M222.977 24.0343C223.009 24.3204 223.009 24.9014 222.977 25.1875C222.779 26.9343 221.786 28.5654 220.254 29.4344C216.655 31.476 211.112 30.183 208.182 27.4372L210.627 24.5324C211.664 25.3455 212.778 26.0951 214.062 26.4631C215.463 26.8639 218.756 27.153 218.847 25.0392C218.893 23.9562 217.911 23.5246 217.044 23.1922C214.101 22.063 209.344 21.9436 208.947 17.8335C208.275 10.8793 216.184 9.95917 220.96 12.6414C221.282 12.8226 222.435 13.443 222.258 13.8409C221.849 14.1936 220.547 16.5405 220.218 16.6224C219.317 16.2284 218.51 15.6108 217.55 15.2842C216.349 14.8766 213.842 14.4836 213.154 15.8912C212.617 16.9914 213.356 17.7333 214.293 18.1572C217.482 19.6005 222.445 19.348 222.977 24.0352V24.0343Z" fill="black"/>
<path d="M23.9198 8.85064C24.1717 8.80632 25.1021 10.211 25.254 10.476C26.6525 12.9241 26.6804 15.9147 25.4145 18.4264C24.6186 20.0055 23.2268 21.0971 22.0311 22.3477C16.9789 27.6293 11.7404 32.7588 6.61425 37.9778C6.49987 38.0915 6.4124 38.0857 6.27495 38.024C6.12019 37.9537 5.40409 36.9334 5.27241 36.7147C3.27887 33.4178 3.82772 29.3963 6.36722 26.5772L23.9198 8.85064Z" fill="black"/>
<path d="M88.6294 11.5371C91.3958 15.3437 94.2621 19.0935 97.1823 22.7854V11.5371H101.314V30.0431C101.314 30.0537 101.181 30.1877 101.17 30.1877H97.807L88.8217 18.4595V30.1877H84.8336C84.8231 30.1877 84.6895 30.0537 84.6895 30.0431V11.5371H88.6294Z" fill="black"/>
<path d="M44.2324 11.5371H52.7362C64.6715 12.8542 64.3611 29.4901 51.9673 30.1867C49.5412 30.3225 47.0017 30.0836 44.564 30.1925C44.466 30.2137 44.2324 30.1231 44.2324 30.0431V11.5371ZM48.4608 26.4379H52.0643C56.805 26.4379 58.7313 20.03 55.6227 16.8207C55.0441 16.2234 53.3648 15.2859 52.544 15.2859H48.4598V26.4379H48.4608Z" fill="black"/>
<path d="M180.788 22.9764H176.656V19.4194H184.824V27.5914C184.107 28.0404 183.46 28.5809 182.712 28.9874C176.791 32.2073 168.77 30.1918 167.286 23.0738C165.522 14.6194 173.841 8.75779 181.496 12.0306C181.93 12.2166 184.063 13.3939 184.059 13.7957C184.057 14.0606 181.908 16.424 181.592 16.8084C180.82 16.3835 180.174 15.7958 179.317 15.4605C174.635 13.6261 170.619 17.3431 171.493 22.1334C172.301 26.5557 177.253 27.9402 180.789 25.6202V22.9764H180.788Z" fill="black"/>
<path d="M29.5957 19.6236C29.8226 19.5629 30.2273 20.1362 30.3907 20.3366C32.2266 22.5853 33.1051 25.9342 31.7911 28.6541C31.1356 30.0116 29.1795 31.6013 28.0847 32.7333C24.4523 36.4908 20.7651 40.2175 17.0885 43.9412C16.7223 44.2225 16.2648 43.447 16.037 43.157C13.9569 40.5094 13.2744 36.5101 15.5919 33.7912L29.5957 19.6246V19.6236Z" fill="#E4242C"/>
<path d="M156.187 11.5371V15.1905H146.193V18.9403H155.034V22.5937H146.193V26.4389H156.284V30.1886H142.205C142.194 30.1886 142.061 30.0547 142.061 30.0441V11.5371H156.187Z" fill="black"/>
<path d="M126.877 11.5371V19.5164C129.411 16.9141 131.849 14.2011 134.325 11.5371H139.274L131.788 19.3854L139.659 30.1867H134.805L129.086 22.3037C128.947 22.2661 128.927 22.3413 128.846 22.3972C128.202 22.8413 127.534 23.8674 126.878 24.3703V30.0422C126.878 30.0528 126.745 30.1867 126.734 30.1867H122.746V11.5371H126.878H126.877Z" fill="black"/>
<path d="M62.2031 30.1877L70.0773 11.4832C70.1619 11.3589 70.284 11.3589 70.4157 11.3406C71.4317 11.2038 72.737 11.4572 73.7876 11.3377L81.8079 30.1877H77.5795L75.9378 26.1104L75.6148 25.9524L68.129 25.9736L66.3354 30.1877H62.2031ZM74.3114 22.3047L71.9575 16.4421L69.6035 22.3047H74.3124H74.3114Z" fill="black"/>
<path d="M206.831 30.1877H202.651L200.732 25.9504L193.006 25.9707C192.779 26.4505 191.444 30.1877 191.215 30.1877H187.131L195.058 11.4408C195.127 11.3329 195.236 11.3531 195.341 11.3396C195.995 11.2577 197.964 11.2606 198.62 11.3396C199.017 11.3878 198.985 11.6518 199.159 11.9534C201.485 17.8333 204.266 23.5437 206.588 29.4217C206.685 29.6684 206.829 29.9208 206.831 30.1877ZM199.335 22.3047C198.695 20.4414 197.833 18.6262 197.129 16.7726L196.885 16.5355L194.53 22.3047H199.335Z" fill="black"/>
<path d="M114.735 23.9706C113.926 23.1015 111.086 22.6131 109.889 22.2325C106.902 21.2816 104.878 19.9019 105.171 16.4026C105.637 10.8329 112.512 10.3685 116.563 12.2877C116.894 12.4448 118.428 13.3321 118.57 13.5527C118.655 13.6828 118.578 13.703 118.524 13.8003C118.008 14.7368 117.134 15.7176 116.531 16.6223C116.384 16.6666 114.637 15.6126 114.257 15.4594C113.098 14.9892 111.52 14.626 110.32 15.1126C108.959 15.6646 108.894 17.1869 110.154 17.9297C113.201 19.7246 118.805 19.0165 119.192 24.0775C119.798 32.0125 108.503 31.6734 104.492 27.4323L106.842 24.513C107.86 25.251 108.919 26.0208 110.134 26.4091C111.746 26.9235 115.493 27.2039 115.051 24.5669C115.021 24.3906 114.855 24.1006 114.734 23.9706H114.735Z" fill="black"/>
</g>
<defs>
<clipPath id="clip0_139_1342">
<rect width="223" height="44" fill="white"/>
</clipPath>
</defs>
</svg>
