<svg width="224" height="44" viewBox="0 0 224 44" fill="none" xmlns="http://www.w3.org/2000/svg">
<path d="M223.971 24.0343C224.003 24.3204 224.003 24.9014 223.971 25.1875C223.772 26.9343 222.774 28.5654 221.236 29.4344C217.62 31.476 212.053 30.183 209.109 27.4372L211.566 24.5324C212.607 25.3455 213.726 26.0951 215.016 26.4631C216.423 26.8639 219.731 27.153 219.823 25.0392C219.869 23.9562 218.882 23.5246 218.011 23.1922C215.055 22.063 210.277 21.9436 209.878 17.8335C209.203 10.8793 217.147 9.95917 221.945 12.6414C222.268 12.8226 223.427 13.443 223.248 13.8409C222.838 14.1936 221.53 16.5405 221.2 16.6224C220.295 16.2284 219.484 15.6108 218.519 15.2842C217.313 14.8766 214.795 14.4836 214.104 15.8912C213.564 16.9914 214.307 17.7333 215.248 18.1572C218.452 19.6005 223.437 19.348 223.971 24.0352V24.0343Z" fill="#FDFCFC"/>
<path d="M89.028 11.5371C91.8067 15.3437 94.6859 19.0935 97.6191 22.7854V11.5371H101.77V30.0431C101.77 30.0537 101.636 30.1877 101.625 30.1877H98.2467L89.2211 18.4595V30.1877H85.2151C85.2045 30.1877 85.0703 30.0537 85.0703 30.0431V11.5371H89.028Z" fill="#FDFCFC"/>
<path d="M44.4297 11.5371H52.9716C64.9604 12.8542 64.6486 29.4901 52.1992 30.1867C49.7622 30.3225 47.2113 30.0836 44.7628 30.1925C44.6643 30.2137 44.4297 30.1231 44.4297 30.0431V11.5371ZM48.677 26.4379H52.2967C57.0587 26.4379 58.9935 20.03 55.8711 16.8207C55.2898 16.2234 53.6031 15.2859 52.7785 15.2859H48.676V26.4379H48.677Z" fill="#FDFCFC"/>
<path d="M181.6 22.9764H177.449V19.4194H185.654V27.5914C184.934 28.0404 184.284 28.5809 183.533 28.9874C177.585 32.2073 169.528 30.1918 168.037 23.0738C166.265 14.6194 174.621 8.75779 182.31 12.0306C182.747 12.2166 184.889 13.3939 184.885 13.7957C184.883 14.0606 182.725 16.424 182.407 16.8084C181.632 16.3835 180.983 15.7958 180.122 15.4605C175.419 13.6261 171.385 17.3431 172.263 22.1334C173.074 26.5557 178.049 27.9402 181.601 25.6202V22.9764H181.6Z" fill="#FDFCFC"/>
<path d="M0.0271013 26.2455C0.0898599 25.2146 -0.0578642 24.0912 0.0271013 23.0728C0.356343 19.1149 2.36462 15.0386 5.04393 12.1588L17.2094 0H17.306C20.2856 3.05222 20.497 7.75581 17.6941 11.0104L0.461584 28.1656C0.236619 28.1704 0.231791 26.4545 0.0271013 26.2445V26.2455Z" fill="#E4242C"/>
<path d="M24.0225 8.85064C24.2755 8.80632 25.2101 10.211 25.3627 10.476C26.7675 12.9241 26.7955 15.9147 25.5239 18.4264C24.7245 20.0055 23.3264 21.0971 22.1253 22.3477C17.0505 27.6293 11.7885 32.7588 6.63936 37.9778C6.52446 38.0915 6.4366 38.0857 6.29853 38.024C6.14308 37.9537 5.42377 36.9334 5.2915 36.7147C3.28902 33.4178 3.84033 29.3963 6.39122 26.5772L24.0225 8.85064Z" fill="#FDFCFC"/>
<path d="M29.7295 19.6217C29.9574 19.561 30.3639 20.1342 30.528 20.3346C32.3721 22.5833 33.2546 25.9323 31.9347 28.6521C31.2763 30.0096 29.3114 31.5993 28.2117 32.7314C24.563 36.4889 20.8593 40.2155 17.1662 43.9393C16.7983 44.2206 16.3387 43.445 16.1099 43.155C14.0205 40.5074 13.335 36.5081 15.6629 33.7893L29.7295 19.6226V19.6217Z" fill="#E4242C"/>
<path d="M156.893 11.5371V15.1905H146.854V18.9403H155.735V22.5937H146.854V26.4389H156.99V30.1886H142.848C142.837 30.1886 142.703 30.0547 142.703 30.0441V11.5371H156.893Z" fill="#FDFCFC"/>
<path d="M127.447 11.5371V19.5164C129.992 16.9141 132.44 14.2011 134.927 11.5371H139.899L132.379 19.3854L140.285 30.1867H135.41L129.665 22.3037C129.525 22.2661 129.505 22.3413 129.424 22.3972C128.777 22.8413 128.106 23.8674 127.448 24.3703V30.0422C127.448 30.0528 127.313 30.1867 127.303 30.1867H123.297V11.5371H127.448H127.447Z" fill="#FDFCFC"/>
<path d="M62.4844 30.1857L70.3939 11.4812C70.4789 11.357 70.6015 11.357 70.7338 11.3387C71.7543 11.2018 73.0655 11.4552 74.1208 11.3358L82.1771 30.1857H77.9298L76.2807 26.1084L75.9562 25.9504L68.4368 25.9716L66.6351 30.1857H62.4844ZM74.647 22.3028L72.2824 16.4401L69.9179 22.3028H74.648H74.647Z" fill="#FDFCFC"/>
<path d="M207.757 30.1857H203.558L201.631 25.9485L193.87 25.9687C193.642 26.4485 192.301 30.1857 192.071 30.1857H187.969L195.931 11.4388C196.001 11.3309 196.11 11.3512 196.216 11.3377C196.873 11.2558 198.85 11.2587 199.51 11.3377C199.908 11.3859 199.876 11.6498 200.051 11.9514C202.387 17.8314 205.181 23.5418 207.513 29.4198C207.61 29.6664 207.755 29.9189 207.757 30.1857ZM200.228 22.3028C199.585 20.4394 198.719 18.6243 198.012 16.7706L197.767 16.5336L195.401 22.3028H200.228Z" fill="#FDFCFC"/>
<path d="M115.249 23.9706C114.437 23.1015 111.584 22.6131 110.382 22.2325C107.381 21.2816 105.348 19.9019 105.643 16.4026C106.111 10.8329 113.016 10.3685 117.086 12.2877C117.418 12.4448 118.959 13.3321 119.102 13.5527C119.187 13.6828 119.11 13.703 119.056 13.8003C118.537 14.7368 117.659 15.7176 117.054 16.6223C116.906 16.6666 115.151 15.6126 114.77 15.4594C113.605 14.9892 112.02 14.626 110.815 15.1126C109.448 15.6646 109.382 17.1869 110.648 17.9297C113.709 19.7246 119.337 19.0165 119.727 24.0775C120.336 32.0125 108.99 31.6734 104.961 27.4323L107.322 24.513C108.344 25.251 109.407 26.0208 110.629 26.4091C112.248 26.9235 116.011 27.2039 115.567 24.5669C115.537 24.3906 115.37 24.1006 115.249 23.9706H115.249Z" fill="#FDFCFC"/>
</svg>
