<svg width="33" height="44" viewBox="0 0 33 44" fill="none" xmlns="http://www.w3.org/2000/svg">
<path d="M0.0271013 26.2455C0.0898599 25.2146 -0.0578642 24.0912 0.0271013 23.0728C0.356343 19.1149 2.36462 15.0386 5.04393 12.1588L17.2094 0H17.306C20.2856 3.05222 20.497 7.75581 17.6941 11.0104L0.461584 28.1656C0.236619 28.1704 0.231791 26.4545 0.0271013 26.2445V26.2455Z" fill="#E4242C"/>
<path d="M24.0225 8.85064C24.2755 8.80632 25.2101 10.211 25.3627 10.476C26.7675 12.9241 26.7955 15.9147 25.5239 18.4264C24.7245 20.0055 23.3264 21.0971 22.1253 22.3477C17.0505 27.6293 11.7885 32.7588 6.63936 37.9778C6.52446 38.0915 6.4366 38.0857 6.29853 38.024C6.14308 37.9537 5.42377 36.9334 5.2915 36.7147C3.28902 33.4178 3.84033 29.3963 6.39122 26.5772L24.0225 8.85064Z" fill="#FDFCFC"/>
<path d="M29.7295 19.6217C29.9574 19.561 30.3639 20.1342 30.528 20.3346C32.3721 22.5833 33.2546 25.9323 31.9347 28.6521C31.2763 30.0096 29.3114 31.5993 28.2117 32.7314C24.563 36.4889 20.8593 40.2155 17.1662 43.9393C16.7983 44.2206 16.3387 43.445 16.1099 43.155C14.0205 40.5074 13.335 36.5081 15.6629 33.7893L29.7295 19.6226V19.6217Z" fill="#E4242C"/>
</svg>
