<svg width="34" height="44" viewBox="0 0 34 44" fill="none" xmlns="http://www.w3.org/2000/svg">
<path d="M0.741945 26.2455C0.804704 25.2146 0.65698 24.0912 0.741945 23.0728C1.07119 19.1149 3.07946 15.0386 5.75877 12.1588L17.9243 0H18.0208C21.0004 3.05222 21.2119 7.75581 18.409 11.0104L1.17643 28.1656C0.951462 28.1704 0.946635 26.4545 0.741945 26.2445V26.2455Z" fill="#E4242C"/>
<path d="M24.7374 8.85259C24.9903 8.80827 25.925 10.213 26.0775 10.4779C27.4823 12.9261 27.5103 15.9166 26.2388 18.4284C25.4393 20.0075 24.0412 21.0991 22.8401 22.3496C17.7654 27.6313 12.5033 32.7607 7.3542 37.9797C7.23931 38.0934 7.15145 38.0877 7.01338 38.026C6.85793 37.9557 6.13862 36.9354 6.00634 36.7167C4.00386 33.4197 4.55517 29.3983 7.10607 26.5792L24.7374 8.85259Z" fill="#171515"/>
<path d="M30.4444 19.6217C30.6722 19.561 31.0787 20.1342 31.2428 20.3346C33.087 22.5833 33.9695 25.9323 32.6496 28.6521C31.9911 30.0096 30.0263 31.5993 28.9266 32.7314C25.2779 36.4889 21.5741 40.2155 17.881 43.9393C17.5132 44.2206 17.0536 43.445 16.8248 43.155C14.7354 40.5074 14.0499 36.5081 16.3777 33.7893L30.4444 19.6226V19.6217Z" fill="#E4242C"/>
</svg>
